<mxfile host="app.diagrams.net" agent="Mozilla/5.0 (Windows NT 10.0; Win64; x64) AppleWebKit/537.36 (KHTML, like Gecko) Chrome/128.0.0.0 Safari/537.36" version="24.7.17">
  <diagram name="Page-1" id="I49Cfbttku3EwP5haJHC">
    <mxGraphModel dx="875" dy="515" grid="1" gridSize="10" guides="1" tooltips="1" connect="1" arrows="1" fold="1" page="1" pageScale="1" pageWidth="850" pageHeight="1100" math="0" shadow="0">
      <root>
        <mxCell id="0" />
        <mxCell id="1" parent="0" />
        <mxCell id="ijdziHkgeL6nkpKCfi1E-9" value="" style="whiteSpace=wrap;html=1;aspect=fixed;" vertex="1" parent="1">
          <mxGeometry x="303" width="80" height="80" as="geometry" />
        </mxCell>
        <mxCell id="ijdziHkgeL6nkpKCfi1E-8" value="" style="whiteSpace=wrap;html=1;aspect=fixed;" vertex="1" parent="1">
          <mxGeometry x="143" width="80" height="80" as="geometry" />
        </mxCell>
        <mxCell id="ijdziHkgeL6nkpKCfi1E-7" value="" style="whiteSpace=wrap;html=1;aspect=fixed;" vertex="1" parent="1">
          <mxGeometry width="80" height="80" as="geometry" />
        </mxCell>
        <mxCell id="ijdziHkgeL6nkpKCfi1E-14" style="edgeStyle=orthogonalEdgeStyle;rounded=0;orthogonalLoop=1;jettySize=auto;html=1;entryX=0;entryY=0.5;entryDx=0;entryDy=0;" edge="1" parent="1" target="ijdziHkgeL6nkpKCfi1E-8">
          <mxGeometry relative="1" as="geometry">
            <mxPoint x="80" y="40" as="sourcePoint" />
          </mxGeometry>
        </mxCell>
        <mxCell id="ijdziHkgeL6nkpKCfi1E-2" value="Create Window" style="text;html=1;align=center;verticalAlign=middle;whiteSpace=wrap;rounded=0;" vertex="1" parent="1">
          <mxGeometry x="10" y="25" width="60" height="30" as="geometry" />
        </mxCell>
        <mxCell id="ijdziHkgeL6nkpKCfi1E-15" style="edgeStyle=orthogonalEdgeStyle;rounded=0;orthogonalLoop=1;jettySize=auto;html=1;entryX=0;entryY=0.5;entryDx=0;entryDy=0;" edge="1" parent="1" target="ijdziHkgeL6nkpKCfi1E-9">
          <mxGeometry relative="1" as="geometry">
            <mxPoint x="223" y="40" as="sourcePoint" />
          </mxGeometry>
        </mxCell>
        <mxCell id="ijdziHkgeL6nkpKCfi1E-4" value="Ask user for Site Info" style="text;html=1;align=center;verticalAlign=middle;whiteSpace=wrap;rounded=0;" vertex="1" parent="1">
          <mxGeometry x="153" y="25" width="60" height="30" as="geometry" />
        </mxCell>
        <mxCell id="ijdziHkgeL6nkpKCfi1E-16" style="edgeStyle=orthogonalEdgeStyle;rounded=0;orthogonalLoop=1;jettySize=auto;html=1;entryX=0;entryY=0.5;entryDx=0;entryDy=0;" edge="1" parent="1" target="ijdziHkgeL6nkpKCfi1E-12">
          <mxGeometry relative="1" as="geometry">
            <mxPoint x="383" y="40" as="sourcePoint" />
          </mxGeometry>
        </mxCell>
        <mxCell id="ijdziHkgeL6nkpKCfi1E-6" value="Check for Site in database" style="text;html=1;align=center;verticalAlign=middle;whiteSpace=wrap;rounded=0;" vertex="1" parent="1">
          <mxGeometry x="313" y="25" width="60" height="30" as="geometry" />
        </mxCell>
        <mxCell id="ijdziHkgeL6nkpKCfi1E-19" style="edgeStyle=orthogonalEdgeStyle;rounded=0;orthogonalLoop=1;jettySize=auto;html=1;exitX=1;exitY=0.5;exitDx=0;exitDy=0;entryX=0;entryY=0.5;entryDx=0;entryDy=0;" edge="1" parent="1" source="ijdziHkgeL6nkpKCfi1E-12" target="ijdziHkgeL6nkpKCfi1E-17">
          <mxGeometry relative="1" as="geometry" />
        </mxCell>
        <mxCell id="ijdziHkgeL6nkpKCfi1E-29" style="edgeStyle=orthogonalEdgeStyle;rounded=0;orthogonalLoop=1;jettySize=auto;html=1;exitX=0.5;exitY=1;exitDx=0;exitDy=0;entryX=0.5;entryY=0;entryDx=0;entryDy=0;" edge="1" parent="1" source="ijdziHkgeL6nkpKCfi1E-12" target="ijdziHkgeL6nkpKCfi1E-24">
          <mxGeometry relative="1" as="geometry" />
        </mxCell>
        <mxCell id="ijdziHkgeL6nkpKCfi1E-12" value="" style="rhombus;whiteSpace=wrap;html=1;" vertex="1" parent="1">
          <mxGeometry x="463" width="80" height="80" as="geometry" />
        </mxCell>
        <mxCell id="ijdziHkgeL6nkpKCfi1E-13" value="Site Exists" style="text;html=1;align=center;verticalAlign=middle;whiteSpace=wrap;rounded=0;" vertex="1" parent="1">
          <mxGeometry x="473" y="25" width="60" height="30" as="geometry" />
        </mxCell>
        <mxCell id="ijdziHkgeL6nkpKCfi1E-23" style="edgeStyle=orthogonalEdgeStyle;rounded=0;orthogonalLoop=1;jettySize=auto;html=1;exitX=1;exitY=0.5;exitDx=0;exitDy=0;entryX=0;entryY=0.5;entryDx=0;entryDy=0;" edge="1" parent="1" source="ijdziHkgeL6nkpKCfi1E-17" target="ijdziHkgeL6nkpKCfi1E-21">
          <mxGeometry relative="1" as="geometry" />
        </mxCell>
        <mxCell id="ijdziHkgeL6nkpKCfi1E-17" value="" style="whiteSpace=wrap;html=1;aspect=fixed;" vertex="1" parent="1">
          <mxGeometry x="623" width="80" height="80" as="geometry" />
        </mxCell>
        <mxCell id="ijdziHkgeL6nkpKCfi1E-18" value="Ask user for site info" style="text;html=1;align=center;verticalAlign=middle;whiteSpace=wrap;rounded=0;" vertex="1" parent="1">
          <mxGeometry x="633" y="25" width="60" height="30" as="geometry" />
        </mxCell>
        <mxCell id="ijdziHkgeL6nkpKCfi1E-20" value="No" style="text;html=1;align=center;verticalAlign=middle;whiteSpace=wrap;rounded=0;" vertex="1" parent="1">
          <mxGeometry x="553" y="10" width="60" height="30" as="geometry" />
        </mxCell>
        <mxCell id="ijdziHkgeL6nkpKCfi1E-28" style="edgeStyle=orthogonalEdgeStyle;rounded=0;orthogonalLoop=1;jettySize=auto;html=1;exitX=0.5;exitY=1;exitDx=0;exitDy=0;entryX=0.5;entryY=0;entryDx=0;entryDy=0;" edge="1" parent="1" source="ijdziHkgeL6nkpKCfi1E-21" target="ijdziHkgeL6nkpKCfi1E-24">
          <mxGeometry relative="1" as="geometry" />
        </mxCell>
        <mxCell id="ijdziHkgeL6nkpKCfi1E-21" value="" style="whiteSpace=wrap;html=1;aspect=fixed;" vertex="1" parent="1">
          <mxGeometry x="760" width="80" height="80" as="geometry" />
        </mxCell>
        <mxCell id="ijdziHkgeL6nkpKCfi1E-22" value="Push row to Site Table" style="text;html=1;align=center;verticalAlign=middle;whiteSpace=wrap;rounded=0;" vertex="1" parent="1">
          <mxGeometry x="770" y="25" width="60" height="30" as="geometry" />
        </mxCell>
        <mxCell id="ijdziHkgeL6nkpKCfi1E-35" style="edgeStyle=orthogonalEdgeStyle;rounded=0;orthogonalLoop=1;jettySize=auto;html=1;exitX=0;exitY=0.5;exitDx=0;exitDy=0;entryX=1;entryY=0.5;entryDx=0;entryDy=0;" edge="1" parent="1" source="ijdziHkgeL6nkpKCfi1E-24" target="ijdziHkgeL6nkpKCfi1E-30">
          <mxGeometry relative="1" as="geometry" />
        </mxCell>
        <mxCell id="ijdziHkgeL6nkpKCfi1E-24" value="" style="whiteSpace=wrap;html=1;aspect=fixed;" vertex="1" parent="1">
          <mxGeometry x="760" y="150" width="80" height="80" as="geometry" />
        </mxCell>
        <mxCell id="ijdziHkgeL6nkpKCfi1E-25" value="Ask user for file location" style="text;html=1;align=center;verticalAlign=middle;whiteSpace=wrap;rounded=0;" vertex="1" parent="1">
          <mxGeometry x="770" y="175" width="60" height="30" as="geometry" />
        </mxCell>
        <mxCell id="ijdziHkgeL6nkpKCfi1E-36" style="edgeStyle=orthogonalEdgeStyle;rounded=0;orthogonalLoop=1;jettySize=auto;html=1;exitX=0;exitY=0.5;exitDx=0;exitDy=0;entryX=1;entryY=0.5;entryDx=0;entryDy=0;" edge="1" parent="1" source="ijdziHkgeL6nkpKCfi1E-30" target="ijdziHkgeL6nkpKCfi1E-32">
          <mxGeometry relative="1" as="geometry" />
        </mxCell>
        <mxCell id="ijdziHkgeL6nkpKCfi1E-30" value="" style="whiteSpace=wrap;html=1;aspect=fixed;" vertex="1" parent="1">
          <mxGeometry x="623" y="150" width="80" height="80" as="geometry" />
        </mxCell>
        <mxCell id="ijdziHkgeL6nkpKCfi1E-31" value="Parse .dat file" style="text;html=1;align=center;verticalAlign=middle;whiteSpace=wrap;rounded=0;" vertex="1" parent="1">
          <mxGeometry x="633" y="175" width="60" height="30" as="geometry" />
        </mxCell>
        <mxCell id="ijdziHkgeL6nkpKCfi1E-32" value="" style="whiteSpace=wrap;html=1;aspect=fixed;" vertex="1" parent="1">
          <mxGeometry x="463" y="150" width="80" height="80" as="geometry" />
        </mxCell>
        <mxCell id="ijdziHkgeL6nkpKCfi1E-33" value="Push data to database" style="text;html=1;align=center;verticalAlign=middle;whiteSpace=wrap;rounded=0;" vertex="1" parent="1">
          <mxGeometry x="473" y="175" width="60" height="30" as="geometry" />
        </mxCell>
        <mxCell id="ijdziHkgeL6nkpKCfi1E-34" value="Yes" style="text;html=1;align=center;verticalAlign=middle;whiteSpace=wrap;rounded=0;" vertex="1" parent="1">
          <mxGeometry x="573" y="90" width="60" height="30" as="geometry" />
        </mxCell>
      </root>
    </mxGraphModel>
  </diagram>
</mxfile>
